<svg version="1.1" id="Layer_1" xmlns="http://www.w3.org/2000/svg" xmlns:xlink="http://www.w3.org/1999/xlink" x="0px" y="0px"
	 width="100%" viewBox="0 0 375 511" enable-background="new 0 0 375 511" xml:space="preserve">
<path fill="#FEFEFE" opacity="1.000000" stroke="none" 
	d="
M1.000000,181.000000 
	C1.000000,120.666687 1.000000,60.833370 1.000000,1.000040 
	C125.999947,1.000027 250.999893,1.000027 375.999878,1.000013 
	C375.999939,171.333237 375.999939,341.666473 375.999969,511.999756 
	C251.000137,511.999847 126.000290,511.999847 1.000215,511.999939 
	C1.000000,401.833344 1.000000,291.666656 1.000000,181.000000 
M236.622055,29.085869 
	C228.826859,34.175247 222.795227,40.889877 217.977142,48.829823 
	C207.758316,65.669884 205.711884,84.459511 205.195282,103.476334 
	C204.738693,120.283585 204.521149,137.139786 205.297470,153.923508 
	C205.838104,165.611832 207.159058,177.485764 210.008957,188.804031 
	C218.582336,222.852890 245.694733,241.433548 280.551605,238.124115 
	C295.208618,236.732529 308.204895,231.685593 318.874268,221.052994 
	C334.914154,205.068451 339.937653,184.801788 340.881348,163.346039 
	C341.751373,143.565811 341.592224,123.714272 341.127716,103.911942 
	C340.879578,93.334221 339.787323,82.643631 337.730042,72.270943 
	C334.323303,55.094616 326.202454,39.962227 311.285461,30.321075 
	C287.266785,14.797330 262.233490,14.881955 236.622055,29.085869 
M92.500069,279.186615 
	C81.000740,279.186615 69.501411,279.189087 58.002079,279.185760 
	C50.681236,279.183655 50.807362,279.192810 50.072090,286.324890 
	C47.121117,314.948975 44.069012,343.562592 41.091053,372.183929 
	C40.270363,380.071686 39.577114,387.972717 38.785416,396.287445 
	C46.280014,397.019348 53.216217,397.802246 60.173618,398.269409 
	C61.296581,398.344788 63.188782,397.284698 63.584377,396.293915 
	C68.112144,384.953796 76.900925,379.858459 88.534477,378.435760 
	C109.448303,375.878204 125.839417,381.527863 133.730438,404.262299 
	C138.736603,418.685455 138.228897,433.374786 133.313232,447.845428 
	C128.426666,462.230377 118.800880,471.024475 103.377464,472.691864 
	C81.550026,475.051575 63.623795,462.585358 62.757580,439.873718 
	C62.715328,438.765930 61.190212,436.808655 60.307301,436.780853 
	C52.528885,436.535828 44.739513,436.638794 36.612076,436.638794 
	C35.590656,453.767212 39.786133,468.672516 52.499870,479.839447 
	C69.903816,495.125946 90.844055,497.789612 112.920998,494.352417 
	C137.125061,490.584015 153.378052,477.169434 161.257004,453.794983 
	C167.283783,435.915405 167.237106,417.860229 162.925522,399.708740 
	C151.973602,353.601654 104.662498,343.009644 73.612068,361.238342 
	C72.273140,362.024353 70.886398,362.728851 69.057999,363.723785 
	C69.057999,362.090820 68.977371,361.276703 69.069847,360.482758 
	C71.070290,343.307190 73.223160,326.147583 74.994576,308.948639 
	C75.351814,305.480072 76.584724,305.028259 79.631577,305.057922 
	C95.629349,305.213531 111.629425,305.131622 127.628700,305.131989 
	C138.980637,305.132233 138.980606,305.132050 141.035751,316.561798 
	C141.065247,316.725800 141.110580,316.888000 141.126923,317.053192 
	C141.416611,319.981171 142.710648,321.496155 145.972031,321.315948 
	C150.291977,321.077271 154.646271,321.063843 158.964798,321.314819 
	C162.741409,321.534302 163.921219,319.999146 163.870285,316.369110 
	C163.718338,305.538391 163.698257,294.702209 163.881393,283.872437 
	C163.944077,280.165894 162.771652,279.063568 158.996353,279.095306 
	C137.165558,279.278931 115.332420,279.185974 92.500069,279.186615 
M206.760941,475.714142 
	C208.126511,477.155487 209.368607,478.743164 210.876633,480.015686 
	C227.364197,493.928925 246.683945,497.160156 267.444305,494.912079 
	C291.688049,492.286835 309.289062,480.329803 318.360474,457.431946 
	C325.609100,439.135132 325.949219,420.191681 321.537537,401.066986 
	C317.969543,385.599640 310.891479,372.073120 297.466888,363.351990 
	C276.302185,349.602661 254.166809,349.104553 231.912231,361.314423 
	C230.509125,362.084259 229.080063,362.806763 227.030777,363.883514 
	C229.347610,343.848053 231.571289,324.618286 233.824692,305.131378 
	C251.194550,305.131378 267.994690,305.115814 284.794769,305.142761 
	C288.779297,305.149139 293.893707,303.840851 296.421997,305.801697 
	C298.826477,307.666534 298.527527,313.016266 299.420074,316.833038 
	C299.495911,317.157257 299.651672,317.473083 299.670898,317.798676 
	C299.836914,320.609894 301.504303,321.347382 304.061279,321.287720 
	C308.723907,321.178833 313.393829,321.153687 318.054962,321.289734 
	C321.088257,321.378296 322.192932,320.105438 322.170807,317.135864 
	C322.086395,305.806854 322.080658,294.476349 322.176788,283.147552 
	C322.201904,280.185822 321.258820,279.102142 318.125610,279.111206 
	C283.137390,279.212616 248.148605,279.215485 213.160400,279.107697 
	C210.076172,279.098206 209.103302,280.202545 208.853027,283.058472 
	C208.257904,289.849335 207.413681,296.618195 206.689117,303.397949 
	C204.833298,320.763458 202.950027,338.126160 201.150406,355.497498 
	C199.765717,368.863403 198.491425,382.240723 197.106339,396.236572 
	C204.500168,396.977905 211.727234,397.814819 218.977814,398.301483 
	C219.997604,398.369934 221.672287,396.948425 222.130386,395.839294 
	C226.711349,384.748444 235.466339,379.864502 246.863373,378.434570 
	C269.974396,375.534912 285.895081,383.248566 292.838257,406.564453 
	C297.045532,420.692963 296.111603,435.079559 291.247864,449.239319 
	C281.210175,478.461884 244.731262,477.977600 230.493927,462.956238 
	C223.553925,455.634033 221.166656,446.766632 220.844635,437.025330 
	C212.050415,437.025330 203.541992,437.025330 195.067734,437.025330 
	C194.270432,453.432526 197.152924,463.104980 206.760941,475.714142 
M139.738876,137.230240 
	C141.508270,135.028214 143.328857,132.865158 145.038879,130.617950 
	C157.620605,114.083847 168.005325,96.730133 166.835983,74.775024 
	C165.755798,54.494175 157.166687,38.381252 139.417480,28.440086 
	C115.866615,15.249457 91.020172,15.310881 67.005379,26.507416 
	C45.106033,36.717655 34.502483,55.483109 32.989460,79.517670 
	C32.704342,84.046822 34.386768,85.327965 38.695419,85.099892 
	C44.676208,84.783310 50.692211,84.858192 56.681458,85.080421 
	C60.145809,85.208969 61.096561,84.057816 61.279552,80.549698 
	C61.837002,69.862930 64.748840,59.965164 72.568649,52.039280 
	C81.260628,43.229385 92.155037,41.656910 103.814011,41.936741 
	C118.325668,42.285049 129.711060,49.823578 135.087479,63.386726 
	C140.993683,78.286392 138.736649,92.705612 130.652512,105.923264 
	C125.132561,114.948463 118.569550,123.475166 111.570717,131.431091 
	C87.631210,158.644363 63.285957,185.500610 39.130558,212.524414 
	C38.060696,213.721313 36.635479,215.193726 36.570580,216.593201 
	C36.288498,222.675980 36.449516,228.779282 36.449516,234.778412 
	C82.714203,234.778412 128.407639,234.778412 174.129959,234.778412 
	C174.129959,220.331894 174.191513,206.338104 174.037689,192.346664 
	C174.021759,190.898834 172.777435,188.247650 172.012802,188.214111 
	C164.765457,187.896393 157.498535,188.024841 150.103333,188.024841 
	C149.359161,194.854843 148.238937,200.960800 148.172668,207.078201 
	C148.120575,211.888596 146.221466,212.940704 141.884689,212.910095 
	C120.228081,212.757202 98.569809,212.846664 76.912148,212.825241 
	C75.533791,212.823883 74.155647,212.606079 72.003983,212.423264 
	C73.274017,210.634750 73.920761,209.500137 74.776566,208.554779 
	C80.801750,201.899078 86.877449,195.289154 92.922943,188.651794 
	C108.372002,171.690216 123.813728,154.721954 139.738876,137.230240 
z"/>
<path fill="#020202" opacity="1.000000" stroke="none" 
	d="
M236.925415,28.885624 
	C262.233490,14.881955 287.266785,14.797330 311.285461,30.321075 
	C326.202454,39.962227 334.323303,55.094616 337.730042,72.270943 
	C339.787323,82.643631 340.879578,93.334221 341.127716,103.911942 
	C341.592224,123.714272 341.751373,143.565811 340.881348,163.346039 
	C339.937653,184.801788 334.914154,205.068451 318.874268,221.052994 
	C308.204895,231.685593 295.208618,236.732529 280.551605,238.124115 
	C245.694733,241.433548 218.582336,222.852890 210.008957,188.804031 
	C207.159058,177.485764 205.838104,165.611832 205.297470,153.923508 
	C204.521149,137.139786 204.738693,120.283585 205.195282,103.476334 
	C205.711884,84.459511 207.758316,65.669884 217.977142,48.829823 
	C222.795227,40.889877 228.826859,34.175247 236.925415,28.885624 
M287.666473,213.354126 
	C290.529510,211.702713 293.702423,210.422623 296.202515,208.336319 
	C307.726013,198.719986 311.254486,185.225037 311.668976,171.287354 
	C312.436218,145.487946 312.318146,119.646255 311.854248,93.835014 
	C311.695099,84.979141 310.159821,75.962723 307.911407,67.370781 
	C304.017548,52.490978 291.599579,42.689331 277.484924,41.999222 
	C257.960632,41.044621 245.926712,47.538269 239.990509,64.191299 
	C236.809097,73.116257 234.792313,82.870422 234.483017,92.323463 
	C233.715286,115.787895 233.891998,139.301697 234.406006,162.779999 
	C234.596573,171.484344 235.790329,180.440308 238.256210,188.769455 
	C245.355408,212.748779 264.965179,219.886765 287.666473,213.354126 
z"/>
<path fill="#030303" opacity="1.000000" stroke="none" 
	d="
M93.000076,279.186615 
	C115.332420,279.185974 137.165558,279.278931 158.996353,279.095306 
	C162.771652,279.063568 163.944077,280.165894 163.881393,283.872437 
	C163.698257,294.702209 163.718338,305.538391 163.870285,316.369110 
	C163.921219,319.999146 162.741409,321.534302 158.964798,321.314819 
	C154.646271,321.063843 150.291977,321.077271 145.972031,321.315948 
	C142.710648,321.496155 141.416611,319.981171 141.126923,317.053192 
	C141.110580,316.888000 141.065247,316.725800 141.035751,316.561798 
	C138.980606,305.132050 138.980637,305.132233 127.628700,305.131989 
	C111.629425,305.131622 95.629349,305.213531 79.631577,305.057922 
	C76.584724,305.028259 75.351814,305.480072 74.994576,308.948639 
	C73.223160,326.147583 71.070290,343.307190 69.069847,360.482758 
	C68.977371,361.276703 69.057999,362.090820 69.057999,363.723785 
	C70.886398,362.728851 72.273140,362.024353 73.612068,361.238342 
	C104.662498,343.009644 151.973602,353.601654 162.925522,399.708740 
	C167.237106,417.860229 167.283783,435.915405 161.257004,453.794983 
	C153.378052,477.169434 137.125061,490.584015 112.920998,494.352417 
	C90.844055,497.789612 69.903816,495.125946 52.499870,479.839447 
	C39.786133,468.672516 35.590656,453.767212 36.612076,436.638794 
	C44.739513,436.638794 52.528885,436.535828 60.307301,436.780853 
	C61.190212,436.808655 62.715328,438.765930 62.757580,439.873718 
	C63.623795,462.585358 81.550026,475.051575 103.377464,472.691864 
	C118.800880,471.024475 128.426666,462.230377 133.313232,447.845428 
	C138.228897,433.374786 138.736603,418.685455 133.730438,404.262299 
	C125.839417,381.527863 109.448303,375.878204 88.534477,378.435760 
	C76.900925,379.858459 68.112144,384.953796 63.584377,396.293915 
	C63.188782,397.284698 61.296581,398.344788 60.173618,398.269409 
	C53.216217,397.802246 46.280014,397.019348 38.785416,396.287445 
	C39.577114,387.972717 40.270363,380.071686 41.091053,372.183929 
	C44.069012,343.562592 47.121117,314.948975 50.072090,286.324890 
	C50.807362,279.192810 50.681236,279.183655 58.002079,279.185760 
	C69.501411,279.189087 81.000740,279.186615 93.000076,279.186615 
z"/>
<path fill="#030303" opacity="1.000000" stroke="none" 
	d="
M206.521408,475.452942 
	C197.152924,463.104980 194.270432,453.432526 195.067734,437.025330 
	C203.541992,437.025330 212.050415,437.025330 220.844635,437.025330 
	C221.166656,446.766632 223.553925,455.634033 230.493927,462.956238 
	C244.731262,477.977600 281.210175,478.461884 291.247864,449.239319 
	C296.111603,435.079559 297.045532,420.692963 292.838257,406.564453 
	C285.895081,383.248566 269.974396,375.534912 246.863373,378.434570 
	C235.466339,379.864502 226.711349,384.748444 222.130386,395.839294 
	C221.672287,396.948425 219.997604,398.369934 218.977814,398.301483 
	C211.727234,397.814819 204.500168,396.977905 197.106339,396.236572 
	C198.491425,382.240723 199.765717,368.863403 201.150406,355.497498 
	C202.950027,338.126160 204.833298,320.763458 206.689117,303.397949 
	C207.413681,296.618195 208.257904,289.849335 208.853027,283.058472 
	C209.103302,280.202545 210.076172,279.098206 213.160400,279.107697 
	C248.148605,279.215485 283.137390,279.212616 318.125610,279.111206 
	C321.258820,279.102142 322.201904,280.185822 322.176788,283.147552 
	C322.080658,294.476349 322.086395,305.806854 322.170807,317.135864 
	C322.192932,320.105438 321.088257,321.378296 318.054962,321.289734 
	C313.393829,321.153687 308.723907,321.178833 304.061279,321.287720 
	C301.504303,321.347382 299.836914,320.609894 299.670898,317.798676 
	C299.651672,317.473083 299.495911,317.157257 299.420074,316.833038 
	C298.527527,313.016266 298.826477,307.666534 296.421997,305.801697 
	C293.893707,303.840851 288.779297,305.149139 284.794769,305.142761 
	C267.994690,305.115814 251.194550,305.131378 233.824692,305.131378 
	C231.571289,324.618286 229.347610,343.848053 227.030777,363.883514 
	C229.080063,362.806763 230.509125,362.084259 231.912231,361.314423 
	C254.166809,349.104553 276.302185,349.602661 297.466888,363.351990 
	C310.891479,372.073120 317.969543,385.599640 321.537537,401.066986 
	C325.949219,420.191681 325.609100,439.135132 318.360474,457.431946 
	C309.289062,480.329803 291.688049,492.286835 267.444305,494.912079 
	C246.683945,497.160156 227.364197,493.928925 210.876633,480.015686 
	C209.368607,478.743164 208.126511,477.155487 206.521408,475.452942 
z"/>
<path fill="#020202" opacity="1.000000" stroke="none" 
	d="
M139.498627,137.493301 
	C123.813728,154.721954 108.372002,171.690216 92.922943,188.651794 
	C86.877449,195.289154 80.801750,201.899078 74.776566,208.554779 
	C73.920761,209.500137 73.274017,210.634750 72.003983,212.423264 
	C74.155647,212.606079 75.533791,212.823883 76.912148,212.825241 
	C98.569809,212.846664 120.228081,212.757202 141.884689,212.910095 
	C146.221466,212.940704 148.120575,211.888596 148.172668,207.078201 
	C148.238937,200.960800 149.359161,194.854843 150.103333,188.024841 
	C157.498535,188.024841 164.765457,187.896393 172.012802,188.214111 
	C172.777435,188.247650 174.021759,190.898834 174.037689,192.346664 
	C174.191513,206.338104 174.129959,220.331894 174.129959,234.778412 
	C128.407639,234.778412 82.714203,234.778412 36.449516,234.778412 
	C36.449516,228.779282 36.288498,222.675980 36.570580,216.593201 
	C36.635479,215.193726 38.060696,213.721313 39.130558,212.524414 
	C63.285957,185.500610 87.631210,158.644363 111.570717,131.431091 
	C118.569550,123.475166 125.132561,114.948463 130.652512,105.923264 
	C138.736649,92.705612 140.993683,78.286392 135.087479,63.386726 
	C129.711060,49.823578 118.325668,42.285049 103.814011,41.936741 
	C92.155037,41.656910 81.260628,43.229385 72.568649,52.039280 
	C64.748840,59.965164 61.837002,69.862930 61.279552,80.549698 
	C61.096561,84.057816 60.145809,85.208969 56.681458,85.080421 
	C50.692211,84.858192 44.676208,84.783310 38.695419,85.099892 
	C34.386768,85.327965 32.704342,84.046822 32.989460,79.517670 
	C34.502483,55.483109 45.106033,36.717655 67.005379,26.507416 
	C91.020172,15.310881 115.866615,15.249457 139.417480,28.440086 
	C157.166687,38.381252 165.755798,54.494175 166.835983,74.775024 
	C168.005325,96.730133 157.620605,114.083847 145.038879,130.617950 
	C143.328857,132.865158 141.508270,135.028214 139.498627,137.493301 
z"/>
<path fill="#FDFDFD" opacity="1.000000" stroke="none" 
	d="
M287.308990,213.523468 
	C264.965179,219.886765 245.355408,212.748779 238.256210,188.769455 
	C235.790329,180.440308 234.596573,171.484344 234.406006,162.779999 
	C233.891998,139.301697 233.715286,115.787895 234.483017,92.323463 
	C234.792313,82.870422 236.809097,73.116257 239.990509,64.191299 
	C245.926712,47.538269 257.960632,41.044621 277.484924,41.999222 
	C291.599579,42.689331 304.017548,52.490978 307.911407,67.370781 
	C310.159821,75.962723 311.695099,84.979141 311.854248,93.835014 
	C312.318146,119.646255 312.436218,145.487946 311.668976,171.287354 
	C311.254486,185.225037 307.726013,198.719986 296.202515,208.336319 
	C293.702423,210.422623 290.529510,211.702713 287.308990,213.523468 
z"/>
</svg>